<svg xmlns="http://www.w3.org/2000/svg" width="136" height="27" fill="none"><path fill="#fff" d="m19.022 0-7.32 14.472-2.274 5.205-.082-5.248L8.903 0H0l2.439 26.825h11.26L28.572 0zM62.73 16.593h5.814l1.622-6.358h-5.82l-1.615 6.358Z"/><path fill="#fff" d="M122.553 19.878 127.147 0h-9.472l-5.052 21.788L110.643 0H99.261l-13.02 23.688s-1.874-3.354-2.965-5.396a9.13 9.13 0 0 0 5.33-2.614 9.16 9.16 0 0 0 2.691-6.494c0-2.234-.8-4.286-2.132-5.88a9.1 9.1 0 0 0-1.99-1.781Q84.722-.001 80.888 0h-32.48L43.94 19.27 42.188 0H30.807L15.81 26.828h9.673l2.66-5.367H35.6l.129 5.367h58.21l2.66-5.367h7.455l.126 5.367h29.306l1.626-6.95h-12.558Zm-91.482-4.31 2.056-4.147 2.075-4.795h.123l.04 4.795.098 4.148h-4.392Zm47.294-5.333H73.71l-1.616 6.361h4.894l-.928 3.546h-4.871l-1.197 4.706H66.45l1.196-4.706h-5.82l-1.196 4.706h-3.543l1.197-4.706h-5.876l.925-3.546h5.853l1.62-6.361H54.71l.929-3.546h6.067l1.197-4.706h3.546l-1.197 4.706h5.817l1.196-4.706h3.546l-1.196 4.706h4.676l-.925 3.546Zm21.157 5.334 2.056-4.148 2.072-4.795h.122l.04 4.795.099 4.148z"/></svg>